<svg xmlns="http://www.w3.org/2000/svg" version="1.1" xmlns:xlink="http://www.w3.org/1999/xlink" width="1500" height="1500" viewBox="0 0 1500 1500"><rect width="1500" height="1500" x="0" y="0" id="background" stroke="transparent" fill="#dbdbdb"></rect><svg xml:space="preserve" width="1000" height="1000" data-version="2" data-id="lg_ElOa0Fn1TMkWVOoksS" viewBox="0 0 571 172" x="250" y="250"><rect width="100%" height="100%" fill="transparent"></rect><rect width="478.81" height="131.145" x="-239.405" y="-65.573" fill="none" stroke="#000000" paint-order="stroke" rx="0" ry="0" transform="translate(276.371 76.022)scale(1.1291)" vector-effect="non-scaling-stroke"></rect><rect width="478.81" height="131.145" x="-239.405" y="-65.573" fill="none" stroke="#000000" paint-order="stroke" rx="0" ry="0" transform="translate(294.629 95.973)scale(1.1291)" vector-effect="non-scaling-stroke"></rect><g transform="translate(291.64 91.4)"><filter id="a" width="140%" height="140%" x="-20%" y="-20%"><feGaussianBlur in="SourceAlpha"></feGaussianBlur><feOffset result="oBlur"></feOffset><feFlood flood-color="#F75CFF" flood-opacity="1"></feFlood><feComposite in2="oBlur" operator="in"></feComposite><feMerge><feMergeNode></feMergeNode><feMergeNode in="SourceGraphic"></feMergeNode></feMerge></filter><g filter="url(#a)"><path fill="#000000" d="M-107.64-23.32q0 12.82-8.81 17.18l13.43 28.39h-6.49l-12.64-26.52q-3.2.53-7.03.53h-6.85v25.99h-6.06v-62.3h12.91q10.86 0 15.84 3.38 5.7 3.83 5.7 13.35m-21.99-11.84h-6.4v26.53h6.4q7.92 0 11.93-3.21 4-3.2 4-11.12 0-10.15-9.25-11.75-2.94-.45-6.68-.45m36.76 21.99-1.6-4.28q9.7-4.8 17-5.07 5.78 0 8.94 1.47 3.16 1.47 5.12 4.09 1.96 2.63 1.96 7.35v31.86h-5.79v-3.38Q-79.43 22.6-82.9 22.6h-.27q-8.01 0-10.95-4.89-1.06-1.78-1.2-3.47-.13-1.69-.13-2.85 0-3.2 2.49-5.74T-87 2.22Q-81.12.71-67.24-.45v-7.21q0-9.7-10.14-9.7-7.12 0-15.49 4.19m2.85 25.27q0 6.41 8.81 6.41 7.03 0 13.97-3.03V2.76q-13.88 1.96-17.17 3.02-5.61 1.78-5.61 6.32m51.53 10.15-15.84-44.5 6.49-.45 13.27 40.77 17.08-40.32h6.23L-40.8 44.5h-5.43l9.79-22.25zm36.85.71q-1.52 0-2.19-.89-.66-.89-.66-2.49t.84-2.58q.85-.98 2.54-.98 2.85 0 2.85 3.65 0 1.51-.94 2.4-.93.89-2.44.89M33.51-22.7q5.25 0 9.97 3.12v-24.48l5.78-.44v64.7h-.44q-2.76 1.16-9.21 1.78-6.46.62-8.95.62-7.47 0-12.37-3.73-6.85-5.17-6.85-17 0-11.84 6.36-18.2 6.37-6.37 15.71-6.37m9.97 39.25v-32.3q-4.45-1.7-8.72-1.7-8.19 0-12.86 4.99-4.68 4.98-4.68 14.15t5.08 12.9q3.65 2.85 9.21 2.85 5.56 0 11.97-.89M63.5.35v1.43q0 15.66 14.96 15.66 6.31 0 11.57-1.69 1.33-.44 1.86-.71l1.34 4.72q-3.12 1.87-11.3 2.67-2.32.17-4.9.17-7.47 0-12.46-3.73-6.85-5.08-6.85-16.91 0-11.84 6.18-18.2 6.19-6.37 15-6.37 8.81 0 13.26 5.7 3.38 4.54 3.38 12.01 0 1.78-.17 3.74H63.59q-.09.71-.09 1.51m15.76-17.44q-5.52 0-9.44 3.34-3.91 3.34-5.43 8.59h25.9q-.44-9.88-7.65-11.48-1.6-.45-3.38-.45m39.51 39.34-16.46-44.5 6.49-.45 12.91 38.1 13.97-37.65 6.41-.45-17.98 44.95z"></path></g></g></svg></svg>